<svg width="20" height="20" viewBox="0 0 20 20" fill="none" xmlns="http://www.w3.org/2000/svg">
<path d="M15.9608 0.64209H4.03895C2.13605 0.64209 0.587891 2.19025 0.587891 4.09315V16.015C0.587891 17.9179 2.13605 19.4665 4.03895 19.4665H15.9608C17.8637 19.4665 19.4123 17.9183 19.4123 16.015V4.09315C19.4123 2.19025 17.8641 0.64209 15.9608 0.64209ZM9.99986 16.2512C6.58312 16.2512 3.8032 13.4713 3.8032 10.0541C3.8032 6.63732 6.58312 3.8574 9.99986 3.8574C13.4171 3.8574 16.197 6.63732 16.197 10.0541C16.197 13.4708 13.4166 16.2512 9.99986 16.2512ZM16.3962 5.13863C15.5873 5.13863 14.9296 4.48086 14.9296 3.67246C14.9296 2.86407 15.5873 2.2063 16.3962 2.2063C17.2046 2.2063 17.8623 2.86407 17.8623 3.67246C17.8623 4.48086 17.2046 5.13863 16.3962 5.13863Z" fill="white"/>
</svg>
